STARTFONT 2.1
FONT HAN-GB2312
SIZE 16 72 72
FONTBOUNDINGBOX 7 16 0 0
STARTPROPERTIES 1
BITCOUNT 8
ENDPROPERTIES
CHARS 27
STARTCHAR  00A4
ENCODING  164
SWIDTH  1000 0
DWIDTH  12 0
BBX  10 10 1 1
BITMAP
00100000100000001000
00E0A0E0FFFFE0A0E000
0080FFE06060E0FF6000
00E0F020000020F0C000
00F0A000000000A0F000
00FFA000000000A0FF00
00E0E010000010E0E000
0080FFC03030C0FF8000
00E0E0FFFFFFF0E0C000
00300010403010003000
ENDCHAR
STARTCHAR  00A7
ENCODING  167
SWIDTH  1000 0
DWIDTH  7 0
BBX  5 13 1 -2
BITMAP
40E0FFE040
E0E060E0E0
FFA00080E0
E0FFA04000
80FFFFFFA0
F0E030E0FF
FFC000C0F0
E0FFF0FFA0
1080E0FFC0
C08000C0FF
F0C020C0F0
80FFFFFF80
0020402000
ENDCHAR
STARTCHAR  00A8
ENCODING  168
SWIDTH  1000 0
DWIDTH  6 0
BBX  4 2 1 9
BITMAP
FFA0A0FF
60303060
ENDCHAR
STARTCHAR  00B0
ENCODING  176
SWIDTH  1000 0
DWIDTH  6 0
BBX  4 5 1 6
BITMAP
40F0E040
E0E0E0E0
F0A0C0F0
80FFFF80
00404000
ENDCHAR
STARTCHAR  00B1
ENCODING  177
SWIDTH  1000 0
DWIDTH  8 0
BBX  6 8 1 0
BITMAP
0000FFA00000
1010FFA01010
FFFFFFFFFFFF
4040FFC04040
0000FFA00000
0000FFA00000
606060606060
FFFFFFFFFFFF
ENDCHAR
STARTCHAR  00B7
ENCODING  183
SWIDTH  1000 0
DWIDTH  3 0
BBX  2 3 1 4
BITMAP
1010
FFA0
4020
ENDCHAR
STARTCHAR  00E0
ENCODING  224
SWIDTH  1000 0
DWIDTH  7 0
BBX  6 11 1 0
BITMAP
20F060000000
0040C0000000
000000000000
60E0FFE06000
F0E060E0E000
A06000A0FF00
2080E0FFFF00
E0E060A0FF00
FFA000A0FF00
F0E060E0FF00
80F0F0E0FF00
ENDCHAR
STARTCHAR  00E1
ENCODING  225
SWIDTH  1000 0
DWIDTH  7 0
BBX  6 11 1 0
BITMAP
0000A0C00000
0010E0200000
000000000000
60E0FFE06000
F0E060E0E000
A06000A0FF00
2080E0FFFF00
E0E060A0FF00
FFA000A0FF00
F0E060E0FF00
80F0F0E0FF00
ENDCHAR
STARTCHAR  00E8
ENCODING  232
SWIDTH  1000 0
DWIDTH  7 0
BBX  5 11 1 0
BITMAP
00C0A00000
0020E01000
0000000000
40E0FFE040
E0E060E0E0
FFA010A0FF
FFFFFFFFFF
FFC0404040
FFA00080E0
E0E060E0E0
40E0FFE040
ENDCHAR
STARTCHAR  00E9
ENCODING  233
SWIDTH  1000 0
DWIDTH  7 0
BBX  5 11 1 0
BITMAP
0000C0A000
0020E01000
0000000000
40E0FFE040
E0E060E0E0
FFA010A0FF
FFFFFFFFFF
FFC0404040
FFA00080E0
E0E060E0E0
40E0FFE040
ENDCHAR
STARTCHAR  00EA
ENCODING  234
SWIDTH  1000 0
DWIDTH  7 0
BBX  5 11 1 0
BITMAP
00C0F0A000
60C010E040
0000000000
40E0FFE040
E0E060E0E0
FFA010A0FF
FFFFFFFFFF
FFC0404040
FFA00080E0
E0E060E0E0
40E0FFE040
ENDCHAR
STARTCHAR  00EC
ENCODING  236
SWIDTH  1000 0
DWIDTH  3 0
BBX  3 11 0 0
BITMAP
40E020
003030
000000
00FFA0
00FFA0
00FFA0
00FFA0
00FFA0
00FFA0
00FFA0
00FFA0
ENDCHAR
STARTCHAR  00ED
ENCODING  237
SWIDTH  1000 0
DWIDTH  3 0
BBX  3 11 1 0
BITMAP
60E010
401000
000000
FFA000
FFA000
FFA000
FFA000
FFA000
FFA000
FFA000
FFA000
ENDCHAR
STARTCHAR  00F2
ENCODING  242
SWIDTH  1000 0
DWIDTH  7 0
BBX  5 11 1 0
BITMAP
00C0800000
0020E01000
0000000000
40E0FFE040
E0E060E0E0
FFA000A0FF
FFA000A0FF
FFA000A0FF
FFA000A0FF
E0E060E0E0
40E0FFE040
ENDCHAR
STARTCHAR  00F3
ENCODING  243
SWIDTH  1000 0
DWIDTH  7 0
BBX  5 11 1 0
BITMAP
0000A0A000
0010E01000
0000000000
40E0FFE040
E0E060E0E0
FFA000A0FF
FFA000A0FF
FFA000A0FF
FFA000A0FF
E0E060E0E0
40E0FFE040
ENDCHAR
STARTCHAR  00F7
ENCODING  247
SWIDTH  1000 0
DWIDTH  4 0
BBX  2 3 1 4
BITMAP
2020
4040
2020
ENDCHAR
STARTCHAR  00F9
ENCODING  249
SWIDTH  1000 0
DWIDTH  7 0
BBX  5 11 1 0
BITMAP
10C0800000
0010400000
0000000000
FFA000A0FF
FFA000A0FF
FFA000A0FF
FFA000A0FF
FFA000A0FF
FFA000A0FF
F0E020E0FF
60F0F0E0FF
ENDCHAR
STARTCHAR  00FA
ENCODING  250
SWIDTH  1000 0
DWIDTH  7 0
BBX  5 11 1 0
BITMAP
0000A0A000
0000400000
0000000000
FFA000A0FF
FFA000A0FF
FFA000A0FF
FFA000A0FF
FFA000A0FF
FFA000A0FF
F0E020E0FF
60F0F0E0FF
ENDCHAR
STARTCHAR  00FC
ENCODING  252
SWIDTH  1000 0
DWIDTH  7 0
BBX  5 11 1 0
BITMAP
A0FF00FFA0
3060006030
0000000000
FFA000A0FF
FFA000A0FF
FFA000A0FF
FFA000A0FF
FFA000A0FF
FFA000A0FF
F0E020E0FF
60F0F0E0FF
ENDCHAR
STARTCHAR  02C7
ENCODING  711
SWIDTH  1000 0
DWIDTH  6 0
BBX  6 2 0 9
BITMAP
10E06060E000
0040F0F03000
ENDCHAR
STARTCHAR  2014
ENCODING  8212
SWIDTH  1000 0
DWIDTH  14 0
BBX  12 3 1 3
BITMAP
101010101010101010101010
FFFFFFFFFFFFFFFFFFFFFFFF
404040404040404040404040
ENDCHAR
STARTCHAR  2018
ENCODING  8216
SWIDTH  1000 0
DWIDTH  3 0
BBX  2 3 1 8
BITMAP
A030
FFC0
6040
ENDCHAR
STARTCHAR  2019
ENCODING  8217
SWIDTH  1000 0
DWIDTH  3 0
BBX  2 3 1 8
BITMAP
C0FF
40F0
3080
ENDCHAR
STARTCHAR  201C
ENCODING  8220
SWIDTH  1000 0
DWIDTH  6 0
BBX  5 3 1 8
BITMAP
A04030A000
FFE080FF30
6040306010
ENDCHAR
STARTCHAR  201D
ENCODING  8221
SWIDTH  1000 0
DWIDTH  5 0
BBX  5 3 0 8
BITMAP
C0FF40FF80
40F010A080
308000A010
ENDCHAR
STARTCHAR  2026
ENCODING  8230
SWIDTH  1000 0
DWIDTH  14 0
BBX  8 2 3 0
BITMAP
6030006030006030
FFA000FFA000FFA0
ENDCHAR
STARTCHAR  2030
ENCODING  8240
SWIDTH  1000 0
DWIDTH  14 0
BBX  12 11 1 0
BITMAP
A0FFA0000030200000000000
FFFFFF000060000000000000
FFFFFF002040000000000000
FFFFFF006000000000000000
C0FFC0006000000000000000
0010004040E0E04080E0E030
00000060A0FFFFA0FFA0FFA0
00003020A0FFFFA0FFA0FFA0
00006000A0FFFFA0FFA0FFA0
00204000A0FFFFA0FFC0FFA0
0060000040F0F040A0F0E040
ENDCHAR
ENDFONT
